<?xml version="1.0" encoding="UTF-8" standalone="no"?>
<!DOCTYPE svg PUBLIC "-//W3C//DTD SVG 1.1//EN" "http://www.w3.org/Graphics/SVG/1.1/DTD/svg11.dtd">
<svg width="100%" height="100%" viewBox="0 0 35 35" version="1.1" xmlns="http://www.w3.org/2000/svg" xmlns:xlink="http://www.w3.org/1999/xlink" xml:space="preserve" xmlns:serif="http://www.serif.com/" style="fill-rule:evenodd;clip-rule:evenodd;stroke-linejoin:round;stroke-miterlimit:2;">
    <g id="Info" transform="matrix(0.7,8.62817e-33,8.62817e-33,0.7,-902.51,-855.89)">
        <path d="M1314.3,1222.7C1300.5,1222.7 1289.3,1233.9 1289.3,1247.7C1289.3,1261.5 1300.5,1272.7 1314.3,1272.7C1328.1,1272.7 1339.3,1261.5 1339.3,1247.7C1339.3,1233.9 1328.1,1222.7 1314.3,1222.7ZM1314.3,1224.7C1327,1224.7 1337.3,1235 1337.3,1247.7C1337.3,1260.4 1327,1270.7 1314.3,1270.7C1301.6,1270.7 1291.3,1260.4 1291.3,1247.7C1291.3,1235 1301.6,1224.7 1314.3,1224.7ZM1316.3,1241.7L1316.3,1257.7L1318.3,1257.7L1318.3,1259.7L1310.3,1259.7L1310.3,1257.7L1312.3,1257.7L1312.3,1243.7L1310.3,1243.7L1310.3,1241.7L1316.3,1241.7ZM1314.3,1235.3C1315.51,1235.3 1316.5,1236.29 1316.5,1237.5C1316.5,1238.71 1315.51,1239.7 1314.3,1239.7C1313.09,1239.7 1312.1,1238.71 1312.1,1237.5C1312.1,1236.29 1313.09,1235.3 1314.3,1235.3Z" style="fill:white;"/>
    </g>
</svg>
