<?xml version="1.0" encoding="UTF-8" standalone="no"?>
<!DOCTYPE svg PUBLIC "-//W3C//DTD SVG 1.1//EN" "http://www.w3.org/Graphics/SVG/1.1/DTD/svg11.dtd">
<svg width="100%" height="100%" viewBox="0 0 35 35" version="1.1" xmlns="http://www.w3.org/2000/svg" xmlns:xlink="http://www.w3.org/1999/xlink" xml:space="preserve" xmlns:serif="http://www.serif.com/" style="fill-rule:evenodd;clip-rule:evenodd;stroke-linejoin:round;stroke-miterlimit:2;">
    <g id="Alarm" transform="matrix(0.972222,1.13529e-32,1.19836e-32,0.921053,-1619.04,-1128.66)">
        <path d="M1686.4,1260.4C1686.3,1262.1 1684.9,1263.4 1683.2,1263.4C1681.5,1263.4 1680.1,1262 1680,1260.4L1686.4,1260.4ZM1700.1,1256.4C1696,1253.9 1693.3,1250.2 1693.3,1244.4L1693.2,1237.4C1692.7,1233.2 1689.4,1229.9 1685.3,1229.5L1685.3,1227.4C1685.3,1226.3 1684.4,1225.4 1683.3,1225.4C1682.2,1225.4 1681.3,1226.3 1681.3,1227.4L1681.3,1229.5C1677.1,1230 1673.8,1233.3 1673.4,1237.4L1673.3,1244.4C1673.3,1250.2 1670.5,1254 1666.4,1256.5C1665.8,1256.7 1665.3,1257.2 1665.3,1257.9C1665.3,1258.7 1666,1259.4 1666.8,1259.4L1699.8,1259.4C1700.6,1259.4 1701.3,1258.7 1701.3,1257.9C1701.2,1257.1 1700.7,1256.5 1700.1,1256.4ZM1697.8,1257.3C1693.6,1254.3 1691.1,1249.4 1691.1,1244.3L1691.1,1237.6C1690.7,1234.4 1688.1,1231.8 1684.9,1231.4L1681.4,1231.4C1678.2,1231.8 1675.6,1234.4 1675.2,1237.6L1675.2,1244.4C1675.2,1249.44 1672.76,1254.29 1668.64,1257.3L1668.5,1257.3L1668.5,1257.4C1668.55,1257.37 1668.59,1257.33 1668.64,1257.3L1697.8,1257.3Z" style="fill:white;"/>
    </g>
</svg>
