<?xml version="1.0" encoding="UTF-8" standalone="no"?>
<!DOCTYPE svg PUBLIC "-//W3C//DTD SVG 1.1//EN" "http://www.w3.org/Graphics/SVG/1.1/DTD/svg11.dtd">
<svg width="100%" height="100%" viewBox="0 0 35 35" version="1.1" xmlns="http://www.w3.org/2000/svg" xmlns:xlink="http://www.w3.org/1999/xlink" xml:space="preserve" xmlns:serif="http://www.serif.com/" style="fill-rule:evenodd;clip-rule:evenodd;stroke-linejoin:round;stroke-miterlimit:2;">
    <g id="Alarm" transform="matrix(0.972222,1.13529e-32,1.19836e-32,0.921053,-1619.04,-1128.66)">
        <path d="M1686.4,1260.4C1686.3,1262.1 1684.9,1263.4 1683.2,1263.4C1681.5,1263.4 1680.1,1262 1680,1260.4L1686.4,1260.4ZM1700.1,1256.4C1696,1253.9 1693.3,1250.2 1693.3,1244.4L1693.2,1237.4C1692.7,1233.2 1689.4,1229.9 1685.3,1229.5L1685.3,1227.4C1685.3,1226.3 1684.4,1225.4 1683.3,1225.4C1682.2,1225.4 1681.3,1226.3 1681.3,1227.4L1681.3,1229.5C1677.1,1230 1673.8,1233.3 1673.4,1237.4L1673.3,1244.4C1673.3,1250.2 1670.5,1254 1666.4,1256.5C1665.8,1256.7 1665.3,1257.2 1665.3,1257.9C1665.3,1258.7 1666,1259.4 1666.8,1259.4L1699.8,1259.4C1700.6,1259.4 1701.3,1258.7 1701.3,1257.9C1701.2,1257.1 1700.7,1256.5 1700.1,1256.4ZM1697.8,1257.3C1693.6,1254.3 1691.1,1249.4 1691.1,1244.3L1691.1,1237.6C1690.7,1234.4 1688.1,1231.8 1684.9,1231.4L1681.4,1231.4C1678.2,1231.8 1675.6,1234.4 1675.2,1237.6L1675.2,1244.4C1675.2,1249.44 1672.76,1254.29 1668.64,1257.3L1668.5,1257.3L1668.5,1257.4C1668.55,1257.37 1668.59,1257.33 1668.64,1257.3L1697.8,1257.3Z" style="fill:white;"/>
    </g>
    <path d="M9.003,16.486C8.674,16.943 8.433,17.469 8.27,18.04C7.917,19.279 8.045,20.785 8.476,22.072C8.359,22.149 8.243,22.242 8.128,22.351C8.019,22.453 7.48,22.975 7.439,23.023C7.046,23.469 6.682,23.944 6.342,24.432C5.913,25.049 5.546,25.814 4.979,26.315C4.722,26.542 4.404,26.645 4.107,26.809C2.95,27.453 2.533,28.916 3.176,30.073C3.82,31.231 5.283,31.648 6.44,31.004C7.041,30.67 7.633,30.374 8.154,29.915L8.257,29.82C8.624,30.142 9.077,30.368 9.605,30.475C10.016,30.558 10.546,30.514 10.882,30.516C12.165,30.523 13.461,30.492 14.735,30.335C15.206,30.277 15.675,30.204 16.149,30.167C16.391,30.148 16.635,30.137 16.878,30.121C16.785,30.127 16.515,30.115 16.515,30.115C16.515,30.115 17.343,30.043 17.753,29.955C17.836,30.002 17.919,30.048 18.003,30.093C18.964,30.609 20.061,30.974 21.161,31.023C21.28,31.032 21.922,31.074 22.187,31.041C22.787,30.964 23.222,30.713 23.503,30.482C23.759,30.272 23.969,30.029 24.137,29.763C25.05,30.008 25.969,30.234 26.876,30.484C27.453,30.644 27.991,30.913 28.565,31.081C28.547,31.076 28.505,31.062 28.505,31.062C28.505,31.062 28.725,31.113 29.019,31.167L29.022,31.169L29.021,31.168C29.466,31.251 30.078,31.344 30.352,31.287C31.039,31.145 31.39,30.816 31.591,30.611C32.075,30.115 32.256,29.561 32.273,29.005C32.287,28.562 32.192,28.075 31.864,27.589C31.761,27.436 30.583,26.629 30.583,26.629C30.583,26.629 30.76,26.702 30.818,26.731C30.757,26.7 30.695,26.67 30.635,26.637C30.552,26.59 30.461,26.549 30.39,26.483C29.824,25.955 29.361,25.308 28.875,24.708C28.233,23.914 27.599,23.115 26.974,22.309C27.073,21.955 27.139,21.591 27.176,21.228C27.355,19.49 26.718,17.441 26.254,15.791C26.025,14.979 25.709,14.164 25.6,13.326C25.483,12.433 25.476,11.513 25.337,10.636C25.13,9.324 24.679,8.098 23.701,7.026C22.712,5.941 21.122,5.256 19.777,4.789C18.94,4.498 18.004,4.18 17.116,4.096C16.203,4.01 15.269,4.249 14.434,4.581C13.519,4.946 12.589,5.457 11.867,6.136C10.689,7.241 10.113,8.816 9.505,10.263C9.02,11.417 8.48,12.801 8.51,14.066C8.529,14.892 8.727,15.705 9.003,16.486Z" style="fill:white;"/>
</svg>
